<svg width="30" height="30" viewBox="0 0 30 30" fill="none" xmlns="http://www.w3.org/2000/svg">
<path fill-rule="evenodd" clip-rule="evenodd" d="M21.5873 16.0854C21.5873 11.881 17.6381 8.33937 13.9683 7.19905V6.80921C13.9683 5.40604 12.8305 4.26953 11.4286 4.26953C10.0267 4.26953 8.88889 5.40604 8.88889 6.80921V7.19905C5.21905 8.33937 1.26984 11.881 1.26984 16.0854V23.3172H0.634921C0.284444 23.3172 0 23.6016 0 23.9521V25.2219C0 25.5724 0.284444 25.8568 0.634921 25.8568H7.61905C7.61905 27.9597 9.32444 29.6664 11.4286 29.6664C13.5327 29.6664 15.2381 27.9597 15.2381 25.8568H22.2222C22.5727 25.8568 22.8571 25.5724 22.8571 25.2219V23.9521C22.8571 23.6016 22.5727 23.3172 22.2222 23.3172H21.5873V16.0854ZM12.0639 27.1273H10.7941C10.4436 27.1273 10.1592 26.8428 10.1592 26.4923V25.8574H12.6989V26.4923C12.6989 26.8428 12.4144 27.1273 12.0639 27.1273ZM3.80957 16.0851V23.3169H19.0477V16.0851C19.0477 12.3696 14.9296 9.34863 11.4286 9.34863C7.92767 9.34863 3.80957 12.3696 3.80957 16.0851Z" fill="white"/>
<rect x="12.6979" y="1.73016" width="15.2381" height="15.2381" rx="7.61905" fill="#FF616A" stroke="#0D1B3A" stroke-width="2.53968"/>
</svg>
