<svg width="24" height="24" viewBox="0 0 24 24" fill="none" xmlns="http://www.w3.org/2000/svg">
<path d="M21.4451 17.791C21.4451 16.9707 21.6208 13.7334 19.0671 11.165C17.3484 9.43652 14.7761 9.13672 11.7 9V4.69308C11.7 4.04233 10.928 3.70036 10.446 4.13761L3.30595 10.6153C2.98013 10.9108 2.97751 11.4221 3.30028 11.721L10.4403 18.3335C10.9205 18.7781 11.7 18.4376 11.7 17.7832V13.5C13.6531 13.5537 15.0443 13.6779 16.3083 14.0801C18.7514 14.8573 20.2012 18.1902 20.5921 19.2054C20.6595 19.3804 20.8265 19.5 21.0141 19.5C21.2548 19.5 21.4499 19.3049 21.4491 19.0642C21.4477 18.6211 21.4451 18.1117 21.4451 17.791Z" fill="#B0B7C3"/>
</svg>
